<svg preserveAspectRatio="none" width="100%" height="100%" overflow="visible" style="display: block;" viewBox="0 0 55.5729 60.8974" fill="none" xmlns="http://www.w3.org/2000/svg">
<g id="Group">
<g id="Vector">
</g>
<path id="Vector_2" d="M19.5762 9.62567C21.2456 4.74025 27.9959 4.59229 29.9752 9.18179L30.1427 9.62846L32.3956 16.2168C32.9119 17.7277 33.7462 19.1104 34.8423 20.2715C35.9383 21.4326 37.2707 22.3451 38.7494 22.9475L39.3552 23.1736L45.9435 25.4237C50.8289 27.0931 50.9769 33.8434 46.3902 35.8227L45.9435 35.9902L39.3552 38.243C37.8437 38.759 36.4605 39.5932 35.2989 40.6893C34.1373 41.7854 33.2244 43.1179 32.6217 44.5969L32.3956 45.1999L30.1455 51.791C28.4761 56.6764 21.7258 56.8244 19.7493 52.2377L19.5762 51.791L17.3261 45.2027C16.8102 43.6912 15.976 42.308 14.8799 41.1464C13.7838 39.9848 12.4513 39.0719 10.9723 38.4692L10.3693 38.243L3.78097 35.993C-1.10724 34.3235 -1.2552 27.5733 3.33431 25.5968L3.78097 25.4237L10.3693 23.1736C11.8802 22.6573 13.2629 21.823 14.424 20.7269C15.5851 19.6308 16.4976 18.2985 17.1 16.8198L17.3261 16.2168L19.5762 9.62567ZM47.1942 5.04419e-07C47.7164 -6.58755e-07 48.2282 0.146502 48.6714 0.422858C49.1146 0.699214 49.4713 1.09434 49.7011 1.56333L49.8351 1.88996L50.8122 4.75421L53.6792 5.73129C54.2026 5.90911 54.6614 6.2383 54.9975 6.67715C55.3336 7.116 55.5319 7.64475 55.5672 8.19639C55.6024 8.74803 55.4732 9.29773 55.1957 9.77582C54.9183 10.2539 54.5051 10.6389 54.0086 10.8819L53.6792 11.0159L50.815 11.993L49.8379 14.86C49.6598 15.3833 49.3303 15.8419 48.8913 16.1777C48.4523 16.5135 47.9235 16.7115 47.3718 16.7464C46.8202 16.7814 46.2706 16.6519 45.7927 16.3742C45.3148 16.0965 44.9301 15.6832 44.6873 15.1867L44.5533 14.86L43.5762 11.9958L40.7091 11.0187C40.1858 10.8409 39.7269 10.5117 39.3908 10.0728C39.0547 9.634 38.8565 9.10525 38.8212 8.55361C38.7859 8.00197 38.9152 7.45227 39.1927 6.97418C39.4701 6.49609 39.8833 6.11113 40.3797 5.86808L40.7091 5.73408L43.5734 4.757L44.5505 1.88996C44.7387 1.3384 45.0949 0.859578 45.569 0.520643C46.0431 0.181707 46.6114 -0.000349744 47.1942 5.04419e-07Z" fill="var(--fill-0, #4B1EF3)"/>
</g>
</svg>
