<svg width="1673" height="641" viewBox="0 0 1673 641" fill="none" xmlns="http://www.w3.org/2000/svg">
<rect x="0.5" y="214.5" width="644" height="213" rx="106.5" stroke="black"/>
<rect x="432.5" y="214.5" width="212" height="213" rx="106" stroke="black"/>
<rect x="182.5" y="214.5" width="212" height="213" rx="106" stroke="black"/>
<rect x="122.5" y="214.5" width="272" height="213" rx="106.5" stroke="black"/>
<rect x="615.5" y="0.5" width="785" height="213" rx="106.5" stroke="black"/>
<rect x="1187.5" y="0.5" width="213" height="213" rx="106.5" stroke="black"/>
<rect x="921.5" y="0.5" width="213" height="213" rx="106.5" stroke="black"/>
<rect x="878.5" y="0.5" width="256" height="213" rx="106.5" stroke="black"/>
<rect x="615.5" y="0.5" width="214" height="213" rx="106.5" stroke="black"/>
<rect x="1313.5" y="214.5" width="359" height="213" rx="106.5" stroke="black"/>
<rect x="0.5" y="-0.5" width="1057" height="212" rx="106" transform="matrix(1 0 0 -1 615 639)" stroke="black"/>
<rect x="943.5" y="426.5" width="214" height="213" rx="106.5" stroke="black"/>
<rect x="685.5" y="427.5" width="214" height="213" rx="106.5" stroke="black"/>
<rect x="1313.5" y="214.5" width="214" height="213" rx="106.5" stroke="black"/>
<path d="M195.21 136H183.96L204.443 77.8182H217.455L237.966 136H226.716L211.176 89.75H210.722L195.21 136ZM195.58 113.188H226.261V121.653H195.58V113.188ZM272.887 117.648V92.3636H283.171V136H273.2V128.244H272.745C271.76 130.687 270.141 132.686 267.887 134.239C265.652 135.792 262.897 136.568 259.62 136.568C256.76 136.568 254.232 135.934 252.035 134.665C249.857 133.377 248.152 131.511 246.921 129.068C245.69 126.606 245.075 123.633 245.075 120.148V92.3636H255.359V118.557C255.359 121.322 256.116 123.519 257.632 125.148C259.147 126.777 261.135 127.591 263.597 127.591C265.113 127.591 266.58 127.222 268.001 126.483C269.421 125.744 270.586 124.646 271.495 123.188C272.423 121.71 272.887 119.864 272.887 117.648ZM315.436 92.3636V100.318H290.351V92.3636H315.436ZM296.544 81.9091H306.828V122.875C306.828 124.258 307.037 125.318 307.453 126.057C307.889 126.777 308.457 127.269 309.158 127.534C309.859 127.799 310.635 127.932 311.488 127.932C312.131 127.932 312.719 127.884 313.249 127.79C313.798 127.695 314.215 127.61 314.499 127.534L316.232 135.574C315.683 135.763 314.897 135.972 313.874 136.199C312.87 136.426 311.639 136.559 310.181 136.597C307.605 136.672 305.285 136.284 303.22 135.432C301.156 134.561 299.518 133.216 298.306 131.398C297.113 129.58 296.525 127.307 296.544 124.58V81.9091ZM342.503 136.852C338.241 136.852 334.548 135.915 331.423 134.04C328.298 132.165 325.874 129.542 324.15 126.17C322.446 122.799 321.593 118.86 321.593 114.352C321.593 109.845 322.446 105.896 324.15 102.506C325.874 99.1155 328.298 96.483 331.423 94.608C334.548 92.733 338.241 91.7955 342.503 91.7955C346.764 91.7955 350.457 92.733 353.582 94.608C356.707 96.483 359.122 99.1155 360.826 102.506C362.55 105.896 363.412 109.845 363.412 114.352C363.412 118.86 362.55 122.799 360.826 126.17C359.122 129.542 356.707 132.165 353.582 134.04C350.457 135.915 346.764 136.852 342.503 136.852ZM342.559 128.614C344.87 128.614 346.802 127.979 348.355 126.71C349.908 125.422 351.063 123.699 351.821 121.54C352.597 119.381 352.986 116.975 352.986 114.324C352.986 111.653 352.597 109.239 351.821 107.08C351.063 104.902 349.908 103.169 348.355 101.881C346.802 100.593 344.87 99.9489 342.559 99.9489C340.192 99.9489 338.222 100.593 336.65 101.881C335.097 103.169 333.932 104.902 333.156 107.08C332.398 109.239 332.02 111.653 332.02 114.324C332.02 116.975 332.398 119.381 333.156 121.54C333.932 123.699 335.097 125.422 336.65 126.71C338.222 127.979 340.192 128.614 342.559 128.614ZM372.04 136V92.3636H381.87V99.7784H382.381C383.29 97.2784 384.796 95.3277 386.898 93.9261C389.001 92.5057 391.51 91.7955 394.427 91.7955C397.381 91.7955 399.872 92.5152 401.898 93.9545C403.944 95.375 405.383 97.3163 406.216 99.7784H406.671C407.637 97.3542 409.266 95.4223 411.557 93.983C413.868 92.5246 416.605 91.7955 419.768 91.7955C423.783 91.7955 427.059 93.0644 429.597 95.6023C432.135 98.1402 433.404 101.843 433.404 106.71V136H423.091V108.301C423.091 105.593 422.372 103.614 420.932 102.364C419.493 101.095 417.732 100.46 415.648 100.46C413.167 100.46 411.226 101.237 409.824 102.79C408.442 104.324 407.751 106.322 407.751 108.784V136H397.665V107.875C397.665 105.621 396.984 103.822 395.62 102.477C394.275 101.133 392.514 100.46 390.336 100.46C388.859 100.46 387.514 100.839 386.302 101.597C385.09 102.335 384.124 103.386 383.404 104.75C382.684 106.095 382.324 107.667 382.324 109.466V136H372.04ZM456.294 136.881C453.529 136.881 451.038 136.388 448.822 135.403C446.625 134.4 444.883 132.922 443.595 130.972C442.326 129.021 441.692 126.616 441.692 123.756C441.692 121.294 442.146 119.258 443.055 117.648C443.964 116.038 445.205 114.75 446.777 113.784C448.349 112.818 450.12 112.089 452.089 111.597C454.078 111.085 456.133 110.716 458.254 110.489C460.811 110.223 462.885 109.987 464.476 109.778C466.067 109.551 467.222 109.21 467.942 108.756C468.68 108.282 469.05 107.553 469.05 106.568V106.398C469.05 104.258 468.415 102.6 467.146 101.426C465.877 100.252 464.05 99.6648 461.663 99.6648C459.144 99.6648 457.146 100.214 455.669 101.312C454.211 102.411 453.226 103.708 452.714 105.205L443.112 103.841C443.87 101.189 445.12 98.9735 446.862 97.1932C448.605 95.3939 450.735 94.0492 453.254 93.1591C455.773 92.25 458.557 91.7955 461.607 91.7955C463.709 91.7955 465.802 92.0417 467.885 92.5341C469.968 93.0265 471.872 93.8409 473.595 94.9773C475.319 96.0947 476.701 97.6193 477.743 99.5511C478.804 101.483 479.334 103.898 479.334 106.795V136H469.447V130.006H469.107C468.482 131.218 467.601 132.354 466.464 133.415C465.347 134.456 463.936 135.299 462.232 135.943C460.546 136.568 458.567 136.881 456.294 136.881ZM458.964 129.324C461.029 129.324 462.819 128.917 464.334 128.102C465.849 127.269 467.014 126.17 467.828 124.807C468.661 123.443 469.078 121.956 469.078 120.347V115.205C468.756 115.47 468.207 115.716 467.43 115.943C466.673 116.17 465.821 116.369 464.874 116.54C463.927 116.71 462.989 116.862 462.061 116.994C461.133 117.127 460.328 117.241 459.646 117.335C458.112 117.544 456.739 117.884 455.527 118.358C454.315 118.831 453.358 119.494 452.658 120.347C451.957 121.18 451.607 122.259 451.607 123.585C451.607 125.479 452.298 126.909 453.68 127.875C455.063 128.841 456.824 129.324 458.964 129.324ZM511.364 92.3636V100.318H486.279V92.3636H511.364ZM492.472 81.9091H502.757V122.875C502.757 124.258 502.965 125.318 503.382 126.057C503.817 126.777 504.385 127.269 505.086 127.534C505.787 127.799 506.563 127.932 507.416 127.932C508.06 127.932 508.647 127.884 509.177 127.79C509.726 127.695 510.143 127.61 510.427 127.534L512.16 135.574C511.611 135.763 510.825 135.972 509.802 136.199C508.798 136.426 507.567 136.559 506.109 136.597C503.533 136.672 501.213 136.284 499.149 135.432C497.084 134.561 495.446 133.216 494.234 131.398C493.041 129.58 492.453 127.307 492.472 124.58V81.9091ZM538.715 136.852C534.34 136.852 530.561 135.943 527.38 134.125C524.217 132.288 521.783 129.693 520.078 126.341C518.374 122.97 517.522 119.002 517.522 114.438C517.522 109.949 518.374 106.009 520.078 102.619C521.802 99.2102 524.207 96.5587 527.294 94.6648C530.381 92.7519 534.008 91.7955 538.175 91.7955C540.864 91.7955 543.402 92.2311 545.789 93.1023C548.194 93.9545 550.315 95.2803 552.152 97.0795C554.008 98.8788 555.467 101.17 556.527 103.955C557.588 106.72 558.118 110.015 558.118 113.841V116.994H522.351V110.062H548.26C548.241 108.093 547.815 106.341 546.982 104.807C546.148 103.254 544.984 102.032 543.487 101.142C542.01 100.252 540.287 99.8068 538.317 99.8068C536.215 99.8068 534.368 100.318 532.777 101.341C531.186 102.345 529.946 103.67 529.056 105.318C528.184 106.947 527.739 108.737 527.72 110.688V116.739C527.72 119.277 528.184 121.455 529.112 123.273C530.041 125.072 531.338 126.455 533.005 127.42C534.671 128.367 536.622 128.841 538.857 128.841C540.353 128.841 541.707 128.633 542.919 128.216C544.131 127.78 545.183 127.146 546.073 126.312C546.963 125.479 547.635 124.447 548.09 123.216L557.692 124.295C557.086 126.833 555.931 129.049 554.226 130.943C552.541 132.818 550.381 134.277 547.749 135.318C545.116 136.341 542.105 136.852 538.715 136.852Z" fill="black"/>
<path d="M719.676 365.364C718.275 365.364 716.977 365.25 715.784 365.023C714.61 364.814 713.672 364.568 712.972 364.284L715.358 356.273C716.854 356.708 718.189 356.917 719.364 356.898C720.538 356.879 721.57 356.509 722.46 355.79C723.369 355.089 724.136 353.915 724.761 352.267L725.642 349.909L709.818 305.364H720.727L730.784 338.318H731.239L741.324 305.364H752.261L734.79 354.284C733.975 356.595 732.896 358.574 731.551 360.222C730.206 361.888 728.559 363.157 726.608 364.028C724.676 364.919 722.366 365.364 719.676 365.364ZM776.828 349.852C772.566 349.852 768.873 348.915 765.748 347.04C762.623 345.165 760.199 342.542 758.475 339.17C756.771 335.799 755.918 331.86 755.918 327.352C755.918 322.845 756.771 318.896 758.475 315.506C760.199 312.116 762.623 309.483 765.748 307.608C768.873 305.733 772.566 304.795 776.828 304.795C781.089 304.795 784.782 305.733 787.907 307.608C791.032 309.483 793.447 312.116 795.151 315.506C796.875 318.896 797.737 322.845 797.737 327.352C797.737 331.86 796.875 335.799 795.151 339.17C793.447 342.542 791.032 345.165 787.907 347.04C784.782 348.915 781.089 349.852 776.828 349.852ZM776.884 341.614C779.195 341.614 781.127 340.979 782.68 339.71C784.233 338.422 785.388 336.699 786.146 334.54C786.922 332.381 787.311 329.975 787.311 327.324C787.311 324.653 786.922 322.239 786.146 320.08C785.388 317.902 784.233 316.169 782.68 314.881C781.127 313.593 779.195 312.949 776.884 312.949C774.517 312.949 772.547 313.593 770.975 314.881C769.422 316.169 768.257 317.902 767.481 320.08C766.723 322.239 766.345 324.653 766.345 327.324C766.345 329.975 766.723 332.381 767.481 334.54C768.257 336.699 769.422 338.422 770.975 339.71C772.547 340.979 774.517 341.614 776.884 341.614ZM834.178 330.648V305.364H844.462V349H834.49V341.244H834.036C833.051 343.687 831.432 345.686 829.178 347.239C826.943 348.792 824.187 349.568 820.911 349.568C818.051 349.568 815.523 348.934 813.326 347.665C811.148 346.377 809.443 344.511 808.212 342.068C806.981 339.606 806.365 336.633 806.365 333.148V305.364H816.649V331.557C816.649 334.322 817.407 336.519 818.922 338.148C820.437 339.777 822.426 340.591 824.888 340.591C826.403 340.591 827.871 340.222 829.291 339.483C830.712 338.744 831.877 337.646 832.786 336.188C833.714 334.71 834.178 332.864 834.178 330.648ZM854.937 349V305.364H864.909V312.636H865.363C866.159 310.117 867.522 308.176 869.454 306.812C871.405 305.43 873.63 304.739 876.13 304.739C876.699 304.739 877.333 304.767 878.034 304.824C878.754 304.862 879.35 304.928 879.824 305.023V314.483C879.388 314.331 878.697 314.199 877.75 314.085C876.822 313.953 875.922 313.886 875.051 313.886C873.176 313.886 871.49 314.294 869.994 315.108C868.517 315.903 867.352 317.011 866.5 318.432C865.647 319.852 865.221 321.491 865.221 323.347V349H854.937ZM906.754 349V290.818H917.038V312.58H917.464C917.995 311.519 918.743 310.392 919.709 309.199C920.675 307.987 921.982 306.955 923.629 306.102C925.277 305.231 927.379 304.795 929.936 304.795C933.307 304.795 936.347 305.657 939.055 307.381C941.783 309.085 943.942 311.614 945.533 314.966C947.143 318.299 947.947 322.39 947.947 327.239C947.947 332.03 947.161 336.102 945.589 339.455C944.018 342.807 941.877 345.364 939.169 347.125C936.461 348.886 933.393 349.767 929.964 349.767C927.464 349.767 925.391 349.35 923.743 348.517C922.095 347.684 920.769 346.68 919.766 345.506C918.781 344.312 918.014 343.186 917.464 342.125H916.868V349H906.754ZM916.839 327.182C916.839 330.004 917.237 332.475 918.033 334.597C918.847 336.718 920.012 338.375 921.527 339.568C923.061 340.742 924.917 341.33 927.095 341.33C929.368 341.33 931.271 340.723 932.805 339.511C934.339 338.28 935.495 336.604 936.271 334.483C937.067 332.343 937.464 329.909 937.464 327.182C937.464 324.473 937.076 322.068 936.3 319.966C935.523 317.864 934.368 316.216 932.834 315.023C931.3 313.83 929.387 313.233 927.095 313.233C924.898 313.233 923.033 313.811 921.499 314.966C919.964 316.121 918.8 317.741 918.004 319.824C917.228 321.907 916.839 324.36 916.839 327.182ZM984.403 330.648V305.364H994.687V349H984.715V341.244H984.261C983.276 343.687 981.657 345.686 979.403 347.239C977.168 348.792 974.412 349.568 971.136 349.568C968.276 349.568 965.748 348.934 963.551 347.665C961.373 346.377 959.668 344.511 958.437 342.068C957.206 339.606 956.59 336.633 956.59 333.148V305.364H966.874V331.557C966.874 334.322 967.632 336.519 969.147 338.148C970.662 339.777 972.651 340.591 975.113 340.591C976.628 340.591 978.096 340.222 979.516 339.483C980.937 338.744 982.102 337.646 983.011 336.188C983.939 334.71 984.403 332.864 984.403 330.648ZM1039.65 316.898L1030.28 317.92C1030.01 316.973 1029.55 316.083 1028.88 315.25C1028.24 314.417 1027.37 313.744 1026.27 313.233C1025.17 312.722 1023.83 312.466 1022.24 312.466C1020.1 312.466 1018.3 312.93 1016.84 313.858C1015.4 314.786 1014.69 315.989 1014.71 317.466C1014.69 318.735 1015.15 319.767 1016.1 320.562C1017.07 321.358 1018.66 322.011 1020.87 322.523L1028.32 324.114C1032.44 325.004 1035.51 326.415 1037.52 328.347C1039.55 330.278 1040.57 332.807 1040.59 335.932C1040.57 338.678 1039.76 341.102 1038.17 343.205C1036.6 345.288 1034.41 346.917 1031.61 348.091C1028.81 349.265 1025.59 349.852 1021.95 349.852C1016.61 349.852 1012.31 348.735 1009.05 346.5C1005.8 344.246 1003.86 341.112 1003.23 337.097L1013.26 336.131C1013.71 338.1 1014.68 339.587 1016.16 340.591C1017.63 341.595 1019.56 342.097 1021.92 342.097C1024.37 342.097 1026.33 341.595 1027.8 340.591C1029.3 339.587 1030.05 338.347 1030.05 336.869C1030.05 335.619 1029.57 334.587 1028.6 333.773C1027.65 332.958 1026.18 332.333 1024.17 331.898L1016.72 330.335C1012.54 329.464 1009.44 327.996 1007.43 325.932C1005.43 323.848 1004.43 321.216 1004.45 318.034C1004.43 315.345 1005.16 313.015 1006.64 311.045C1008.14 309.057 1010.21 307.523 1012.86 306.443C1015.53 305.345 1018.61 304.795 1022.09 304.795C1027.21 304.795 1031.23 305.884 1034.17 308.062C1037.12 310.241 1038.95 313.186 1039.65 316.898ZM1048.97 349V305.364H1059.25V349H1048.97ZM1054.14 299.17C1052.51 299.17 1051.11 298.631 1049.93 297.551C1048.76 296.453 1048.17 295.136 1048.17 293.602C1048.17 292.049 1048.76 290.733 1049.93 289.653C1051.11 288.555 1052.51 288.006 1054.14 288.006C1055.79 288.006 1057.19 288.555 1058.34 289.653C1059.52 290.733 1060.1 292.049 1060.1 293.602C1060.1 295.136 1059.52 296.453 1058.34 297.551C1057.19 298.631 1055.79 299.17 1054.14 299.17ZM1080.01 323.432V349H1069.73V305.364H1079.56V312.778H1080.07C1081.07 310.335 1082.67 308.394 1084.87 306.955C1087.09 305.515 1089.82 304.795 1093.08 304.795C1096.09 304.795 1098.71 305.439 1100.95 306.727C1103.2 308.015 1104.95 309.881 1106.18 312.324C1107.43 314.767 1108.04 317.731 1108.02 321.216V349H1097.74V322.807C1097.74 319.89 1096.98 317.608 1095.47 315.96C1093.97 314.312 1091.9 313.489 1089.24 313.489C1087.45 313.489 1085.85 313.886 1084.44 314.682C1083.06 315.458 1081.97 316.585 1081.18 318.062C1080.4 319.54 1080.01 321.33 1080.01 323.432ZM1137.7 349.852C1133.32 349.852 1129.54 348.943 1126.36 347.125C1123.2 345.288 1120.76 342.693 1119.06 339.341C1117.36 335.97 1116.5 332.002 1116.5 327.438C1116.5 322.949 1117.36 319.009 1119.06 315.619C1120.78 312.21 1123.19 309.559 1126.28 307.665C1129.36 305.752 1132.99 304.795 1137.16 304.795C1139.85 304.795 1142.38 305.231 1144.77 306.102C1147.18 306.955 1149.3 308.28 1151.13 310.08C1152.99 311.879 1154.45 314.17 1155.51 316.955C1156.57 319.72 1157.1 323.015 1157.1 326.841V329.994H1121.33V323.062H1147.24C1147.22 321.093 1146.8 319.341 1145.96 317.807C1145.13 316.254 1143.96 315.032 1142.47 314.142C1140.99 313.252 1139.27 312.807 1137.3 312.807C1135.2 312.807 1133.35 313.318 1131.76 314.341C1130.17 315.345 1128.93 316.67 1128.04 318.318C1127.17 319.947 1126.72 321.737 1126.7 323.688V329.739C1126.7 332.277 1127.17 334.455 1128.09 336.273C1129.02 338.072 1130.32 339.455 1131.99 340.42C1133.65 341.367 1135.6 341.841 1137.84 341.841C1139.33 341.841 1140.69 341.633 1141.9 341.216C1143.11 340.78 1144.16 340.146 1145.05 339.312C1145.94 338.479 1146.62 337.447 1147.07 336.216L1156.67 337.295C1156.07 339.833 1154.91 342.049 1153.21 343.943C1151.52 345.818 1149.36 347.277 1146.73 348.318C1144.1 349.341 1141.09 349.852 1137.7 349.852ZM1200.19 316.898L1190.81 317.92C1190.55 316.973 1190.08 316.083 1189.42 315.25C1188.78 314.417 1187.91 313.744 1186.81 313.233C1185.71 312.722 1184.36 312.466 1182.77 312.466C1180.63 312.466 1178.83 312.93 1177.38 313.858C1175.94 314.786 1175.23 315.989 1175.25 317.466C1175.23 318.735 1175.69 319.767 1176.64 320.562C1177.6 321.358 1179.19 322.011 1181.41 322.523L1188.85 324.114C1192.98 325.004 1196.05 326.415 1198.06 328.347C1200.08 330.278 1201.11 332.807 1201.13 335.932C1201.11 338.678 1200.3 341.102 1198.71 343.205C1197.14 345.288 1194.95 346.917 1192.15 348.091C1189.35 349.265 1186.13 349.852 1182.49 349.852C1177.15 349.852 1172.85 348.735 1169.59 346.5C1166.33 344.246 1164.39 341.112 1163.77 337.097L1173.8 336.131C1174.25 338.1 1175.22 339.587 1176.69 340.591C1178.17 341.595 1180.09 342.097 1182.46 342.097C1184.9 342.097 1186.86 341.595 1188.34 340.591C1189.84 339.587 1190.59 338.347 1190.59 336.869C1190.59 335.619 1190.1 334.587 1189.14 333.773C1188.19 332.958 1186.71 332.333 1184.71 331.898L1177.26 330.335C1173.08 329.464 1169.98 327.996 1167.97 325.932C1165.96 323.848 1164.97 321.216 1164.99 318.034C1164.97 315.345 1165.7 313.015 1167.18 311.045C1168.67 309.057 1170.75 307.523 1173.4 306.443C1176.07 305.345 1179.15 304.795 1182.63 304.795C1187.75 304.795 1191.77 305.884 1194.71 308.062C1197.66 310.241 1199.49 313.186 1200.19 316.898ZM1243.99 316.898L1234.62 317.92C1234.35 316.973 1233.89 316.083 1233.23 315.25C1232.58 314.417 1231.71 313.744 1230.61 313.233C1229.52 312.722 1228.17 312.466 1226.58 312.466C1224.44 312.466 1222.64 312.93 1221.18 313.858C1219.74 314.786 1219.03 315.989 1219.05 317.466C1219.03 318.735 1219.5 319.767 1220.44 320.562C1221.41 321.358 1223 322.011 1225.22 322.523L1232.66 324.114C1236.79 325.004 1239.86 326.415 1241.86 328.347C1243.89 330.278 1244.91 332.807 1244.93 335.932C1244.91 338.678 1244.11 341.102 1242.52 343.205C1240.95 345.288 1238.76 346.917 1235.95 348.091C1233.15 349.265 1229.93 349.852 1226.3 349.852C1220.95 349.852 1216.66 348.735 1213.4 346.5C1210.14 344.246 1208.2 341.112 1207.57 337.097L1217.6 336.131C1218.06 338.1 1219.02 339.587 1220.5 340.591C1221.98 341.595 1223.9 342.097 1226.27 342.097C1228.71 342.097 1230.67 341.595 1232.15 340.591C1233.64 339.587 1234.39 338.347 1234.39 336.869C1234.39 335.619 1233.91 334.587 1232.94 333.773C1232 332.958 1230.52 332.333 1228.51 331.898L1221.07 330.335C1216.88 329.464 1213.79 327.996 1211.78 325.932C1209.77 323.848 1208.78 321.216 1208.8 318.034C1208.78 315.345 1209.51 313.015 1210.98 311.045C1212.48 309.057 1214.55 307.523 1217.2 306.443C1219.88 305.345 1222.95 304.795 1226.44 304.795C1231.55 304.795 1235.58 305.884 1238.51 308.062C1241.47 310.241 1243.29 313.186 1243.99 316.898Z" fill="black"/>
<path d="M187.284 575.364V515.364H197.398V522.58H197.994C198.525 521.519 199.273 520.392 200.239 519.199C201.205 517.987 202.511 516.955 204.159 516.102C205.807 515.231 207.909 514.795 210.466 514.795C213.837 514.795 216.877 515.657 219.585 517.381C222.313 519.085 224.472 521.614 226.062 524.966C227.672 528.299 228.477 532.39 228.477 537.239C228.477 542.03 227.691 546.102 226.119 549.455C224.547 552.807 222.407 555.364 219.699 557.125C216.991 558.886 213.922 559.767 210.494 559.767C207.994 559.767 205.92 559.35 204.273 558.517C202.625 557.684 201.299 556.68 200.295 555.506C199.311 554.312 198.544 553.186 197.994 552.125H197.568V575.364H187.284ZM197.369 537.182C197.369 540.004 197.767 542.475 198.562 544.597C199.377 546.718 200.542 548.375 202.057 549.568C203.591 550.742 205.447 551.33 207.625 551.33C209.898 551.33 211.801 550.723 213.335 549.511C214.869 548.28 216.025 546.604 216.801 544.483C217.597 542.343 217.994 539.909 217.994 537.182C217.994 534.473 217.606 532.068 216.83 529.966C216.053 527.864 214.898 526.216 213.364 525.023C211.83 523.83 209.917 523.233 207.625 523.233C205.428 523.233 203.562 523.811 202.028 524.966C200.494 526.121 199.33 527.741 198.534 529.824C197.758 531.907 197.369 534.36 197.369 537.182ZM237.184 559V515.364H247.156V522.636H247.61C248.406 520.117 249.769 518.176 251.701 516.812C253.652 515.43 255.877 514.739 258.377 514.739C258.945 514.739 259.58 514.767 260.281 514.824C261 514.862 261.597 514.928 262.07 515.023V524.483C261.635 524.331 260.944 524.199 259.997 524.085C259.069 523.953 258.169 523.886 257.298 523.886C255.423 523.886 253.737 524.294 252.241 525.108C250.764 525.903 249.599 527.011 248.747 528.432C247.894 529.852 247.468 531.491 247.468 533.347V559H237.184ZM286.04 559.852C281.779 559.852 278.086 558.915 274.961 557.04C271.836 555.165 269.411 552.542 267.688 549.17C265.983 545.799 265.131 541.86 265.131 537.352C265.131 532.845 265.983 528.896 267.688 525.506C269.411 522.116 271.836 519.483 274.961 517.608C278.086 515.733 281.779 514.795 286.04 514.795C290.301 514.795 293.995 515.733 297.12 517.608C300.245 519.483 302.659 522.116 304.364 525.506C306.087 528.896 306.949 532.845 306.949 537.352C306.949 541.86 306.087 545.799 304.364 549.17C302.659 552.542 300.245 555.165 297.12 557.04C293.995 558.915 290.301 559.852 286.04 559.852ZM286.097 551.614C288.407 551.614 290.339 550.979 291.892 549.71C293.445 548.422 294.601 546.699 295.358 544.54C296.135 542.381 296.523 539.975 296.523 537.324C296.523 534.653 296.135 532.239 295.358 530.08C294.601 527.902 293.445 526.169 291.892 524.881C290.339 523.593 288.407 522.949 286.097 522.949C283.729 522.949 281.76 523.593 280.188 524.881C278.635 526.169 277.47 527.902 276.693 530.08C275.936 532.239 275.557 534.653 275.557 537.324C275.557 539.975 275.936 542.381 276.693 544.54C277.47 546.699 278.635 548.422 280.188 549.71C281.76 550.979 283.729 551.614 286.097 551.614ZM334.612 559.852C330.256 559.852 326.515 558.896 323.39 556.983C320.284 555.07 317.888 552.428 316.203 549.057C314.536 545.667 313.703 541.765 313.703 537.352C313.703 532.92 314.555 529.009 316.26 525.619C317.964 522.21 320.37 519.559 323.476 517.665C326.601 515.752 330.294 514.795 334.555 514.795C338.097 514.795 341.231 515.449 343.959 516.756C346.705 518.044 348.892 519.871 350.521 522.239C352.15 524.587 353.078 527.333 353.305 530.477H343.476C343.078 528.375 342.131 526.623 340.635 525.222C339.157 523.801 337.178 523.091 334.697 523.091C332.595 523.091 330.748 523.659 329.157 524.795C327.566 525.913 326.326 527.523 325.436 529.625C324.565 531.727 324.129 534.246 324.129 537.182C324.129 540.155 324.565 542.712 325.436 544.852C326.307 546.973 327.529 548.612 329.101 549.767C330.691 550.903 332.557 551.472 334.697 551.472C336.212 551.472 337.566 551.187 338.76 550.619C339.972 550.032 340.985 549.189 341.799 548.091C342.614 546.992 343.173 545.657 343.476 544.085H353.305C353.059 547.172 352.15 549.909 350.578 552.295C349.006 554.663 346.866 556.519 344.157 557.864C341.449 559.189 338.267 559.852 334.612 559.852ZM380.968 559.852C376.593 559.852 372.814 558.943 369.633 557.125C366.47 555.288 364.036 552.693 362.332 549.341C360.627 545.97 359.775 542.002 359.775 537.438C359.775 532.949 360.627 529.009 362.332 525.619C364.055 522.21 366.46 519.559 369.547 517.665C372.635 515.752 376.261 514.795 380.428 514.795C383.118 514.795 385.655 515.231 388.042 516.102C390.447 516.955 392.568 518.28 394.405 520.08C396.261 521.879 397.72 524.17 398.78 526.955C399.841 529.72 400.371 533.015 400.371 536.841V539.994H364.604V533.062H390.513C390.494 531.093 390.068 529.341 389.235 527.807C388.402 526.254 387.237 525.032 385.741 524.142C384.263 523.252 382.54 522.807 380.57 522.807C378.468 522.807 376.621 523.318 375.03 524.341C373.439 525.345 372.199 526.67 371.309 528.318C370.438 529.947 369.993 531.737 369.974 533.688V539.739C369.974 542.277 370.438 544.455 371.366 546.273C372.294 548.072 373.591 549.455 375.258 550.42C376.924 551.367 378.875 551.841 381.11 551.841C382.606 551.841 383.96 551.633 385.172 551.216C386.385 550.78 387.436 550.146 388.326 549.312C389.216 548.479 389.888 547.447 390.343 546.216L399.945 547.295C399.339 549.833 398.184 552.049 396.479 553.943C394.794 555.818 392.635 557.277 390.002 558.318C387.369 559.341 384.358 559.852 380.968 559.852ZM443.46 526.898L434.085 527.92C433.82 526.973 433.356 526.083 432.693 525.25C432.049 524.417 431.178 523.744 430.08 523.233C428.981 522.722 427.636 522.466 426.045 522.466C423.905 522.466 422.106 522.93 420.648 523.858C419.208 524.786 418.498 525.989 418.517 527.466C418.498 528.735 418.962 529.767 419.909 530.562C420.875 531.358 422.466 532.011 424.682 532.523L432.125 534.114C436.254 535.004 439.322 536.415 441.33 538.347C443.356 540.278 444.379 542.807 444.398 545.932C444.379 548.678 443.574 551.102 441.983 553.205C440.411 555.288 438.223 556.917 435.42 558.091C432.617 559.265 429.398 559.852 425.761 559.852C420.42 559.852 416.121 558.735 412.864 556.5C409.606 554.246 407.665 551.112 407.04 547.097L417.068 546.131C417.523 548.1 418.489 549.587 419.966 550.591C421.443 551.595 423.366 552.097 425.733 552.097C428.176 552.097 430.136 551.595 431.614 550.591C433.11 549.587 433.858 548.347 433.858 546.869C433.858 545.619 433.375 544.587 432.409 543.773C431.462 542.958 429.985 542.333 427.977 541.898L420.534 540.335C416.348 539.464 413.252 537.996 411.244 535.932C409.237 533.848 408.242 531.216 408.261 528.034C408.242 525.345 408.972 523.015 410.449 521.045C411.945 519.057 414.019 517.523 416.67 516.443C419.341 515.345 422.419 514.795 425.903 514.795C431.017 514.795 435.042 515.884 437.977 518.062C440.932 520.241 442.759 523.186 443.46 526.898ZM487.266 526.898L477.891 527.92C477.626 526.973 477.162 526.083 476.499 525.25C475.855 524.417 474.984 523.744 473.886 523.233C472.787 522.722 471.443 522.466 469.852 522.466C467.712 522.466 465.912 522.93 464.454 523.858C463.015 524.786 462.304 525.989 462.323 527.466C462.304 528.735 462.768 529.767 463.715 530.562C464.681 531.358 466.272 532.011 468.488 532.523L475.931 534.114C480.06 535.004 483.128 536.415 485.136 538.347C487.162 540.278 488.185 542.807 488.204 545.932C488.185 548.678 487.38 551.102 485.789 553.205C484.217 555.288 482.03 556.917 479.227 558.091C476.424 559.265 473.204 559.852 469.568 559.852C464.227 559.852 459.927 558.735 456.67 556.5C453.412 554.246 451.471 551.112 450.846 547.097L460.874 546.131C461.329 548.1 462.295 549.587 463.772 550.591C465.249 551.595 467.172 552.097 469.539 552.097C471.982 552.097 473.943 551.595 475.42 550.591C476.916 549.587 477.664 548.347 477.664 546.869C477.664 545.619 477.181 544.587 476.215 543.773C475.268 542.958 473.791 542.333 471.784 541.898L464.34 540.335C460.155 539.464 457.058 537.996 455.051 535.932C453.043 533.848 452.049 531.216 452.068 528.034C452.049 525.345 452.778 523.015 454.255 521.045C455.751 519.057 457.825 517.523 460.477 516.443C463.147 515.345 466.225 514.795 469.71 514.795C474.823 514.795 478.848 515.884 481.784 518.062C484.738 520.241 486.566 523.186 487.266 526.898ZM515.902 559.852C511.527 559.852 507.749 558.943 504.567 557.125C501.404 555.288 498.97 552.693 497.266 549.341C495.561 545.97 494.709 542.002 494.709 537.438C494.709 532.949 495.561 529.009 497.266 525.619C498.989 522.21 501.395 519.559 504.482 517.665C507.569 515.752 511.196 514.795 515.362 514.795C518.052 514.795 520.59 515.231 522.976 516.102C525.381 516.955 527.503 518.28 529.34 520.08C531.196 521.879 532.654 524.17 533.715 526.955C534.775 529.72 535.306 533.015 535.306 536.841V539.994H499.539V533.062H525.448C525.429 531.093 525.003 529.341 524.169 527.807C523.336 526.254 522.171 525.032 520.675 524.142C519.198 523.252 517.474 522.807 515.505 522.807C513.402 522.807 511.556 523.318 509.965 524.341C508.374 525.345 507.133 526.67 506.243 528.318C505.372 529.947 504.927 531.737 504.908 533.688V539.739C504.908 542.277 505.372 544.455 506.3 546.273C507.228 548.072 508.525 549.455 510.192 550.42C511.859 551.367 513.809 551.841 516.044 551.841C517.541 551.841 518.895 551.633 520.107 551.216C521.319 550.78 522.37 550.146 523.26 549.312C524.15 548.479 524.823 547.447 525.277 546.216L534.88 547.295C534.273 549.833 533.118 552.049 531.414 553.943C529.728 555.818 527.569 557.277 524.936 558.318C522.304 559.341 519.292 559.852 515.902 559.852ZM578.395 526.898L569.02 527.92C568.754 526.973 568.29 526.083 567.628 525.25C566.984 524.417 566.112 523.744 565.014 523.233C563.915 522.722 562.571 522.466 560.98 522.466C558.84 522.466 557.04 522.93 555.582 523.858C554.143 524.786 553.432 525.989 553.451 527.466C553.432 528.735 553.897 529.767 554.843 530.562C555.809 531.358 557.4 532.011 559.616 532.523L567.059 534.114C571.188 535.004 574.256 536.415 576.264 538.347C578.29 540.278 579.313 542.807 579.332 545.932C579.313 548.678 578.508 551.102 576.917 553.205C575.345 555.288 573.158 556.917 570.355 558.091C567.552 559.265 564.332 559.852 560.696 559.852C555.355 559.852 551.056 558.735 547.798 556.5C544.54 554.246 542.599 551.112 541.974 547.097L552.003 546.131C552.457 548.1 553.423 549.587 554.9 550.591C556.378 551.595 558.3 552.097 560.667 552.097C563.111 552.097 565.071 551.595 566.548 550.591C568.044 549.587 568.792 548.347 568.792 546.869C568.792 545.619 568.309 544.587 567.343 543.773C566.397 542.958 564.919 542.333 562.912 541.898L555.468 540.335C551.283 539.464 548.186 537.996 546.179 535.932C544.171 533.848 543.177 531.216 543.196 528.034C543.177 525.345 543.906 523.015 545.383 521.045C546.879 519.057 548.953 517.523 551.605 516.443C554.275 515.345 557.353 514.795 560.838 514.795C565.951 514.795 569.976 515.884 572.912 518.062C575.866 520.241 577.694 523.186 578.395 526.898Z" fill="black"/>
<path d="M1219.29 559L1206.96 515.364H1217.44L1225.11 546.045H1225.51L1233.35 515.364H1243.72L1251.56 545.875H1251.99L1259.55 515.364H1270.06L1257.7 559H1246.99L1238.81 529.511H1238.21L1230.03 559H1219.29ZM1277.14 559V515.364H1287.42V559H1277.14ZM1282.31 509.17C1280.68 509.17 1279.28 508.631 1278.1 507.551C1276.93 506.453 1276.34 505.136 1276.34 503.602C1276.34 502.049 1276.93 500.733 1278.1 499.653C1279.28 498.555 1280.68 498.006 1282.31 498.006C1283.96 498.006 1285.36 498.555 1286.51 499.653C1287.69 500.733 1288.27 502.049 1288.27 503.602C1288.27 505.136 1287.69 506.453 1286.51 507.551C1285.36 508.631 1283.96 509.17 1282.31 509.17ZM1319.69 515.364V523.318H1294.6V515.364H1319.69ZM1300.79 504.909H1311.08V545.875C1311.08 547.258 1311.29 548.318 1311.7 549.057C1312.14 549.777 1312.71 550.269 1313.41 550.534C1314.11 550.799 1314.89 550.932 1315.74 550.932C1316.38 550.932 1316.97 550.884 1317.5 550.79C1318.05 550.695 1318.46 550.61 1318.75 550.534L1320.48 558.574C1319.93 558.763 1319.15 558.972 1318.12 559.199C1317.12 559.426 1315.89 559.559 1314.43 559.597C1311.85 559.672 1309.53 559.284 1307.47 558.432C1305.41 557.561 1303.77 556.216 1302.56 554.398C1301.36 552.58 1300.78 550.307 1300.79 547.58V504.909ZM1339.41 533.432V559H1329.12V500.818H1339.18V522.778H1339.69C1340.72 520.316 1342.3 518.375 1344.44 516.955C1346.6 515.515 1349.34 514.795 1352.68 514.795C1355.71 514.795 1358.35 515.43 1360.6 516.699C1362.86 517.968 1364.6 519.824 1365.83 522.267C1367.08 524.71 1367.7 527.693 1367.7 531.216V559H1357.42V532.807C1357.42 529.871 1356.66 527.589 1355.15 525.96C1353.65 524.312 1351.55 523.489 1348.84 523.489C1347.02 523.489 1345.39 523.886 1343.95 524.682C1342.53 525.458 1341.42 526.585 1340.6 528.062C1339.81 529.54 1339.41 531.33 1339.41 533.432ZM1405.76 559H1394.51L1414.99 500.818H1428L1448.51 559H1437.26L1421.72 512.75H1421.27L1405.76 559ZM1406.13 536.188H1436.81V544.653H1406.13V536.188ZM1466.62 500.818V559H1456.08V500.818H1466.62Z" fill="black"/>
<path d="M276.06 288.15H304.705M242.75 288.15H267.095M282.255 288.15L310.617 364.783L329.815 312.91M296.748 288.15L317.862 345.203M245.38 288.15L273.61 364.433L292.055 314.593M259.872 288.15L280.858 344.853M329.815 312.91C330.908 309.105 335.25 303.41 335.25 295.22C335.25 282.383 331.092 277.218 324.312 277.218C318.775 277.218 316.805 282.538 316.805 286.983C316.805 300.178 329.815 302 329.815 312.91Z" stroke="url(#paint0_linear_47_292)" stroke-width="4.5" stroke-linecap="round" stroke-linejoin="round"/>
<path d="M848.714 534C848.714 548.776 842.844 562.947 832.396 573.396C821.948 583.844 807.776 589.714 793 589.714C778.224 589.714 764.053 583.844 753.604 573.396C743.156 562.947 737.286 548.776 737.286 534M848.714 534C848.714 519.224 842.844 505.052 832.396 494.604C821.948 484.156 807.776 478.286 793 478.286C778.224 478.286 764.053 484.156 753.604 494.604C743.156 505.052 737.286 519.224 737.286 534M848.714 534H737.286" stroke="black" stroke-width="4.5" stroke-linecap="round" stroke-linejoin="round"/>
<path d="M848.714 534C848.714 548.776 842.844 562.947 832.396 573.396C821.948 583.844 807.776 589.714 793 589.714C778.224 589.714 764.053 583.844 753.604 573.396C743.156 562.947 737.286 548.776 737.286 534M848.714 534C848.714 519.224 842.844 505.052 832.396 494.604C821.948 484.156 807.776 478.286 793 478.286C778.224 478.286 764.053 484.156 753.604 494.604C743.156 505.052 737.286 519.224 737.286 534M848.714 534H737.286" stroke="url(#paint1_linear_47_292)" stroke-width="4.5" stroke-linecap="round" stroke-linejoin="round"/>
<path d="M814.429 534C813.376 554.374 805.872 573.886 793 589.714C780.129 573.886 772.624 554.374 771.571 534C772.624 513.626 780.129 494.114 793 478.286C805.872 494.114 813.376 513.626 814.429 534Z" stroke="black" stroke-width="4.5" stroke-linecap="round" stroke-linejoin="round"/>
<path d="M814.429 534C813.376 554.374 805.872 573.886 793 589.714C780.129 573.886 772.624 554.374 771.571 534C772.624 513.626 780.129 494.114 793 478.286C805.872 494.114 813.376 513.626 814.429 534Z" stroke="url(#paint2_linear_47_292)" stroke-width="4.5" stroke-linecap="round" stroke-linejoin="round"/>
<path d="M1406 327.25C1408.06 327.25 1410.03 328.066 1411.48 329.52C1412.93 330.973 1413.75 332.945 1413.75 335V360C1413.75 362.055 1412.93 364.027 1411.48 365.48C1410.03 366.934 1408.06 367.75 1406 367.75C1403.94 367.75 1401.97 366.934 1400.52 365.48C1399.07 364.027 1398.25 362.055 1398.25 360V335C1398.25 332.945 1399.07 330.973 1400.52 329.52C1401.88 328.157 1403.7 327.355 1405.62 327.26L1406 327.25ZM1431 352.25C1433.06 352.25 1435.03 353.066 1436.48 354.52C1437.93 355.973 1438.75 357.945 1438.75 360C1438.75 362.055 1437.93 364.027 1436.48 365.48C1435.03 366.934 1433.06 367.75 1431 367.75C1428.94 367.75 1426.97 366.934 1425.52 365.48C1424.07 364.027 1423.25 362.055 1423.25 360V352.25H1431ZM1381 327.25H1388.75V335C1388.75 337.055 1387.93 339.027 1386.48 340.48C1385.03 341.934 1383.06 342.75 1381 342.75C1378.94 342.75 1376.97 341.934 1375.52 340.48C1374.07 339.027 1373.25 337.055 1373.25 335C1373.25 332.945 1374.07 330.973 1375.52 329.52C1376.88 328.157 1378.7 327.355 1380.62 327.26L1381 327.25ZM1431 327.25H1456C1458.06 327.25 1460.03 328.066 1461.48 329.52C1462.93 330.973 1463.75 332.945 1463.75 335C1463.75 337.055 1462.93 339.027 1461.48 340.48C1460.03 341.934 1458.06 342.75 1456 342.75H1431C1428.94 342.75 1426.97 341.934 1425.52 340.48C1424.07 339.027 1423.25 337.055 1423.25 335C1423.25 332.945 1424.07 330.973 1425.52 329.52C1426.88 328.157 1428.7 327.355 1430.62 327.26L1431 327.25ZM1381 302.25H1406C1408.06 302.25 1410.03 303.066 1411.48 304.52C1412.93 305.973 1413.75 307.945 1413.75 310C1413.75 312.055 1412.93 314.027 1411.48 315.48C1410.03 316.934 1408.06 317.75 1406 317.75H1381C1378.94 317.75 1376.97 316.934 1375.52 315.48C1374.07 314.027 1373.25 312.055 1373.25 310C1373.25 307.945 1374.07 305.973 1375.52 304.52C1376.88 303.157 1378.7 302.355 1380.62 302.26L1381 302.25ZM1431 277.25C1433.06 277.25 1435.03 278.066 1436.48 279.52C1437.93 280.973 1438.75 282.945 1438.75 285V310C1438.75 312.055 1437.93 314.027 1436.48 315.48C1435.03 316.934 1433.06 317.75 1431 317.75C1428.94 317.75 1426.97 316.934 1425.52 315.48C1424.07 314.027 1423.25 312.055 1423.25 310V285C1423.25 282.945 1424.07 280.973 1425.52 279.52C1426.97 278.066 1428.94 277.25 1431 277.25ZM1456 302.25C1458.06 302.25 1460.03 303.066 1461.48 304.52C1462.93 305.973 1463.75 307.945 1463.75 310C1463.75 312.055 1462.93 314.027 1461.48 315.48C1460.03 316.934 1458.06 317.75 1456 317.75H1448.25V310C1448.25 307.945 1449.07 305.973 1450.52 304.52C1451.97 303.066 1453.94 302.25 1456 302.25ZM1406 277.25C1408.06 277.25 1410.03 278.066 1411.48 279.52C1412.93 280.973 1413.75 282.945 1413.75 285V292.75H1406C1403.94 292.75 1401.97 291.934 1400.52 290.48C1399.07 289.027 1398.25 287.055 1398.25 285C1398.25 282.945 1399.07 280.973 1400.52 279.52C1401.97 278.066 1403.94 277.25 1406 277.25Z" stroke="black" stroke-width="4.5"/>
<path d="M1406 327.25C1408.06 327.25 1410.03 328.066 1411.48 329.52C1412.93 330.973 1413.75 332.945 1413.75 335V360C1413.75 362.055 1412.93 364.027 1411.48 365.48C1410.03 366.934 1408.06 367.75 1406 367.75C1403.94 367.75 1401.97 366.934 1400.52 365.48C1399.07 364.027 1398.25 362.055 1398.25 360V335C1398.25 332.945 1399.07 330.973 1400.52 329.52C1401.88 328.157 1403.7 327.355 1405.62 327.26L1406 327.25ZM1431 352.25C1433.06 352.25 1435.03 353.066 1436.48 354.52C1437.93 355.973 1438.75 357.945 1438.75 360C1438.75 362.055 1437.93 364.027 1436.48 365.48C1435.03 366.934 1433.06 367.75 1431 367.75C1428.94 367.75 1426.97 366.934 1425.52 365.48C1424.07 364.027 1423.25 362.055 1423.25 360V352.25H1431ZM1381 327.25H1388.75V335C1388.75 337.055 1387.93 339.027 1386.48 340.48C1385.03 341.934 1383.06 342.75 1381 342.75C1378.94 342.75 1376.97 341.934 1375.52 340.48C1374.07 339.027 1373.25 337.055 1373.25 335C1373.25 332.945 1374.07 330.973 1375.52 329.52C1376.88 328.157 1378.7 327.355 1380.62 327.26L1381 327.25ZM1431 327.25H1456C1458.06 327.25 1460.03 328.066 1461.48 329.52C1462.93 330.973 1463.75 332.945 1463.75 335C1463.75 337.055 1462.93 339.027 1461.48 340.48C1460.03 341.934 1458.06 342.75 1456 342.75H1431C1428.94 342.75 1426.97 341.934 1425.52 340.48C1424.07 339.027 1423.25 337.055 1423.25 335C1423.25 332.945 1424.07 330.973 1425.52 329.52C1426.88 328.157 1428.7 327.355 1430.62 327.26L1431 327.25ZM1381 302.25H1406C1408.06 302.25 1410.03 303.066 1411.48 304.52C1412.93 305.973 1413.75 307.945 1413.75 310C1413.75 312.055 1412.93 314.027 1411.48 315.48C1410.03 316.934 1408.06 317.75 1406 317.75H1381C1378.94 317.75 1376.97 316.934 1375.52 315.48C1374.07 314.027 1373.25 312.055 1373.25 310C1373.25 307.945 1374.07 305.973 1375.52 304.52C1376.88 303.157 1378.7 302.355 1380.62 302.26L1381 302.25ZM1431 277.25C1433.06 277.25 1435.03 278.066 1436.48 279.52C1437.93 280.973 1438.75 282.945 1438.75 285V310C1438.75 312.055 1437.93 314.027 1436.48 315.48C1435.03 316.934 1433.06 317.75 1431 317.75C1428.94 317.75 1426.97 316.934 1425.52 315.48C1424.07 314.027 1423.25 312.055 1423.25 310V285C1423.25 282.945 1424.07 280.973 1425.52 279.52C1426.97 278.066 1428.94 277.25 1431 277.25ZM1456 302.25C1458.06 302.25 1460.03 303.066 1461.48 304.52C1462.93 305.973 1463.75 307.945 1463.75 310C1463.75 312.055 1462.93 314.027 1461.48 315.48C1460.03 316.934 1458.06 317.75 1456 317.75H1448.25V310C1448.25 307.945 1449.07 305.973 1450.52 304.52C1451.97 303.066 1453.94 302.25 1456 302.25ZM1406 277.25C1408.06 277.25 1410.03 278.066 1411.48 279.52C1412.93 280.973 1413.75 282.945 1413.75 285V292.75H1406C1403.94 292.75 1401.97 291.934 1400.52 290.48C1399.07 289.027 1398.25 287.055 1398.25 285C1398.25 282.945 1399.07 280.973 1400.52 279.52C1401.97 278.066 1403.94 277.25 1406 277.25Z" stroke="url(#paint3_linear_47_292)" stroke-width="4.5"/>
<path d="M1019.43 141.286L1010.86 162.714M1036.57 141.286L1045.14 162.714M1002.29 162.714H1053.71M1079.43 64.1429H976.571C975.435 64.1429 974.345 64.5944 973.541 65.3981C972.737 66.2019 972.286 67.292 972.286 68.4286V137C972.286 138.137 972.737 139.227 973.541 140.03C974.345 140.834 975.435 141.286 976.571 141.286H1079.43C1080.57 141.286 1081.66 140.834 1082.46 140.03C1083.26 139.227 1083.71 138.137 1083.71 137V68.4286C1083.71 67.292 1083.26 66.2019 1082.46 65.3981C1081.66 64.5944 1080.57 64.1429 1079.43 64.1429Z" stroke="black" stroke-width="4.5" stroke-linecap="round" stroke-linejoin="round"/>
<path d="M1019.43 141.286L1010.86 162.714M1036.57 141.286L1045.14 162.714M1002.29 162.714H1053.71M1079.43 64.1429H976.571C975.435 64.1429 974.345 64.5944 973.541 65.3981C972.737 66.2019 972.286 67.292 972.286 68.4286V137C972.286 138.137 972.737 139.227 973.541 140.03C974.345 140.834 975.435 141.286 976.571 141.286H1079.43C1080.57 141.286 1081.66 140.834 1082.46 140.03C1083.26 139.227 1083.71 138.137 1083.71 137V68.4286C1083.71 67.292 1083.26 66.2019 1082.46 65.3981C1081.66 64.5944 1080.57 64.1429 1079.43 64.1429Z" stroke="url(#paint4_linear_47_292)" stroke-width="4.5" stroke-linecap="round" stroke-linejoin="round"/>
<path d="M1006.57 92L991.571 104.857L1004.43 115.571M1051.57 94.1429L1064.43 104.857L1049.43 117.714M1021.57 122L1034.43 83.4286" stroke="black" stroke-width="4.5" stroke-linecap="round" stroke-linejoin="round"/>
<path d="M1006.57 92L991.571 104.857L1004.43 115.571M1051.57 94.1429L1064.43 104.857L1049.43 117.714M1021.57 122L1034.43 83.4286" stroke="url(#paint5_linear_47_292)" stroke-width="4.5" stroke-linecap="round" stroke-linejoin="round"/>
<path d="M492.125 284.75C490.633 284.75 489.202 285.343 488.148 286.398C487.093 287.452 486.5 288.883 486.5 290.375C486.5 291.867 487.093 293.298 488.148 294.352C489.202 295.407 490.633 296 492.125 296H529.625C531.117 296 532.548 295.407 533.602 294.352C534.657 293.298 535.25 291.867 535.25 290.375C535.25 288.883 534.657 287.452 533.602 286.398C532.548 285.343 531.117 284.75 529.625 284.75H492.125ZM514.625 307.25C513.133 307.25 511.702 307.843 510.648 308.898C509.593 309.952 509 311.383 509 312.875C509 314.367 509.593 315.798 510.648 316.852C511.702 317.907 513.133 318.5 514.625 318.5H540.875C542.367 318.5 543.798 317.907 544.852 316.852C545.907 315.798 546.5 314.367 546.5 312.875C546.5 311.383 545.907 309.952 544.852 308.898C543.798 307.843 542.367 307.25 540.875 307.25H514.625ZM501.5 335.375C501.5 333.883 502.093 332.452 503.148 331.398C504.202 330.343 505.633 329.75 507.125 329.75H563.375C564.867 329.75 566.298 330.343 567.352 331.398C568.407 332.452 569 333.883 569 335.375C569 336.867 568.407 338.298 567.352 339.352C566.298 340.407 564.867 341 563.375 341H507.125C505.633 341 504.202 340.407 503.148 339.352C502.093 338.298 501.5 336.867 501.5 335.375ZM492.125 352.25C490.633 352.25 489.202 352.843 488.148 353.898C487.093 354.952 486.5 356.383 486.5 357.875C486.5 359.367 487.093 360.798 488.148 361.852C489.202 362.907 490.633 363.5 492.125 363.5H544.625C546.117 363.5 547.548 362.907 548.602 361.852C549.657 360.798 550.25 359.367 550.25 357.875C550.25 356.383 549.657 354.952 548.602 353.898C547.548 352.843 546.117 352.25 544.625 352.25H492.125ZM557.75 312.875C557.75 311.383 558.343 309.952 559.398 308.898C560.452 307.843 561.883 307.25 563.375 307.25H578.375C579.867 307.25 581.298 307.843 582.352 308.898C583.407 309.952 584 311.383 584 312.875C584 314.367 583.407 315.798 582.352 316.852C581.298 317.907 579.867 318.5 578.375 318.5H563.375C561.883 318.5 560.452 317.907 559.398 316.852C558.343 315.798 557.75 314.367 557.75 312.875ZM552.125 284.75C550.633 284.75 549.202 285.343 548.148 286.398C547.093 287.452 546.5 288.883 546.5 290.375C546.5 291.867 547.093 293.298 548.148 294.352C549.202 295.407 550.633 296 552.125 296H585.875C587.367 296 588.798 295.407 589.852 294.352C590.907 293.298 591.5 291.867 591.5 290.375C591.5 288.883 590.907 287.452 589.852 286.398C588.798 285.343 587.367 284.75 585.875 284.75H552.125Z" fill="url(#paint6_linear_47_292)"/>
<path d="M1011 572.94C1008.25 572.94 1005.9 571.962 1003.94 570.005C1001.98 568.048 1001 565.693 1001 562.94V502.94C1001 500.19 1001.98 497.837 1003.94 495.88C1005.9 493.923 1008.25 492.943 1011 492.94H1091C1093.75 492.94 1096.11 493.92 1098.07 495.88C1100.03 497.84 1101 500.193 1101 502.94V562.94C1101 565.69 1100.02 568.045 1098.07 570.005C1096.11 571.965 1093.75 572.943 1091 572.94H1011ZM1051 534.44L1007 504V566.44H1095V504L1051 534.44ZM1051 527.94L1095 498.5H1007L1051 527.94ZM1007 504V498.5V566.44V504Z" fill="url(#paint7_linear_47_292)"/>
<path d="M703 60C698 60 690.5 62.5 690.5 72.5V95C690.5 102.5 678 107.5 678 107.5C678 107.5 690.5 112.5 690.5 120V147.5C690.5 157.5 698 160 703 160M743 60C748 60 755.5 62.5 755.5 72.5V95C755.5 102.5 768 107.5 768 107.5C768 107.5 755.5 112.5 755.5 120V147.5C755.5 157.5 748 160 743 160" stroke="black" stroke-width="4.5" stroke-linecap="round" stroke-linejoin="round"/>
<path d="M703 60C698 60 690.5 62.5 690.5 72.5V95C690.5 102.5 678 107.5 678 107.5C678 107.5 690.5 112.5 690.5 120V147.5C690.5 157.5 698 160 703 160M743 60C748 60 755.5 62.5 755.5 72.5V95C755.5 102.5 768 107.5 768 107.5C768 107.5 755.5 112.5 755.5 120V147.5C755.5 157.5 748 160 743 160" stroke="url(#paint8_linear_47_292)" stroke-width="4.5" stroke-linecap="round" stroke-linejoin="round"/>
<path d="M1294 62C1304.08 62 1313.74 66.0035 1320.87 73.1299C1328 80.2563 1332 89.9218 1332 100C1332 115.475 1322.44 129.997 1312.52 140.838C1307.6 146.219 1302.68 150.608 1298.98 153.651C1297.13 155.172 1295.59 156.353 1294.52 157.151C1294.34 157.292 1294.16 157.417 1294 157.533C1293.84 157.417 1293.66 157.292 1293.48 157.151C1292.41 156.353 1290.87 155.172 1289.02 153.651C1285.32 150.608 1280.4 146.219 1275.48 140.838C1265.56 129.997 1256 115.475 1256 100C1256 89.9218 1260 80.2563 1267.13 73.1299C1274.26 66.0035 1283.92 62 1294 62ZM1294 83C1289.49 83 1285.17 84.7914 1281.98 87.9795C1278.79 91.1676 1277 95.4913 1277 100C1277 104.509 1278.79 108.832 1281.98 112.021C1285.07 115.109 1289.22 116.887 1293.58 116.995L1294 117C1298.51 117 1302.83 115.209 1306.02 112.021C1309.21 108.832 1311 104.509 1311 100C1311 95.4913 1309.21 91.1676 1306.02 87.9795C1302.83 84.7914 1298.51 83 1294 83Z" stroke="black" stroke-width="4"/>
<path d="M1294 62C1304.08 62 1313.74 66.0035 1320.87 73.1299C1328 80.2563 1332 89.9218 1332 100C1332 115.475 1322.44 129.997 1312.52 140.838C1307.6 146.219 1302.68 150.608 1298.98 153.651C1297.13 155.172 1295.59 156.353 1294.52 157.151C1294.34 157.292 1294.16 157.417 1294 157.533C1293.84 157.417 1293.66 157.292 1293.48 157.151C1292.41 156.353 1290.87 155.172 1289.02 153.651C1285.32 150.608 1280.4 146.219 1275.48 140.838C1265.56 129.997 1256 115.475 1256 100C1256 89.9218 1260 80.2563 1267.13 73.1299C1274.26 66.0035 1283.92 62 1294 62ZM1294 83C1289.49 83 1285.17 84.7914 1281.98 87.9795C1278.79 91.1676 1277 95.4913 1277 100C1277 104.509 1278.79 108.832 1281.98 112.021C1285.07 115.109 1289.22 116.887 1293.58 116.995L1294 117C1298.51 117 1302.83 115.209 1306.02 112.021C1309.21 108.832 1311 104.509 1311 100C1311 95.4913 1309.21 91.1676 1306.02 87.9795C1302.83 84.7914 1298.51 83 1294 83Z" stroke="url(#paint9_linear_47_292)" stroke-width="4"/>
<path d="M1334 100C1334 132.5 1294 160 1294 160C1294 160 1254 132.5 1254 100C1254 89.3913 1258.21 79.2172 1265.72 71.7157C1273.22 64.2143 1283.39 60 1294 60C1304.61 60 1314.78 64.2143 1322.28 71.7157C1329.79 79.2172 1334 89.3913 1334 100Z" stroke="black" stroke-width="4"/>
<path d="M1334 100C1334 132.5 1294 160 1294 160C1294 160 1254 132.5 1254 100C1254 89.3913 1258.21 79.2172 1265.72 71.7157C1273.22 64.2143 1283.39 60 1294 60C1304.61 60 1314.78 64.2143 1322.28 71.7157C1329.79 79.2172 1334 89.3913 1334 100Z" stroke="url(#paint10_linear_47_292)" stroke-width="4"/>
<path d="M1309 100C1309 103.978 1307.42 107.794 1304.61 110.607C1301.79 113.42 1297.98 115 1294 115C1290.02 115 1286.21 113.42 1283.39 110.607C1280.58 107.794 1279 103.978 1279 100C1279 96.0218 1280.58 92.2064 1283.39 89.3934C1286.21 86.5804 1290.02 85 1294 85C1297.98 85 1301.79 86.5804 1304.61 89.3934C1307.42 92.2064 1309 96.0218 1309 100Z" stroke="black" stroke-width="4"/>
<path d="M1309 100C1309 103.978 1307.42 107.794 1304.61 110.607C1301.79 113.42 1297.98 115 1294 115C1290.02 115 1286.21 113.42 1283.39 110.607C1280.58 107.794 1279 103.978 1279 100C1279 96.0218 1280.58 92.2064 1283.39 89.3934C1286.21 86.5804 1290.02 85 1294 85C1297.98 85 1301.79 86.5804 1304.61 89.3934C1307.42 92.2064 1309 96.0218 1309 100Z" stroke="url(#paint11_linear_47_292)" stroke-width="4"/>
<path d="M432.707 326.707C433.098 326.317 433.098 325.683 432.707 325.293L426.343 318.929C425.953 318.538 425.319 318.538 424.929 318.929C424.538 319.319 424.538 319.953 424.929 320.343L430.586 326L424.929 331.657C424.538 332.047 424.538 332.681 424.929 333.071C425.319 333.462 425.953 333.462 426.343 333.071L432.707 326.707ZM395 326V327H432V326V325H395V326Z" fill="black"/>
<path d="M657.999 192.947C657.97 192.396 657.499 191.972 656.947 192.001L647.96 192.474C647.408 192.503 646.985 192.974 647.014 193.526C647.043 194.077 647.513 194.501 648.065 194.472L656.054 194.051L656.474 202.04C656.503 202.592 656.974 203.015 657.526 202.986C658.077 202.957 658.501 202.487 658.472 201.935L657.999 192.947ZM612 243L612.743 243.669L657.743 193.669L657 193L656.257 192.331L611.257 242.331L612 243Z" fill="black"/>
<path d="M647.862 456.99C648.409 457.067 648.914 456.685 648.99 456.138L650.236 447.225C650.313 446.678 649.931 446.173 649.384 446.096C648.837 446.02 648.332 446.401 648.256 446.948L647.148 454.871L639.225 453.764C638.678 453.687 638.173 454.069 638.096 454.616C638.02 455.163 638.401 455.668 638.948 455.744L647.862 456.99ZM608 403L607.202 403.602L647.202 456.602L648 456L648.798 455.398L608.798 402.398L608 403Z" fill="black"/>
<path d="M878.693 103.721C879.091 103.338 879.104 102.705 878.721 102.307L872.483 95.8194C872.1 95.4213 871.467 95.4089 871.069 95.7917C870.671 96.1745 870.658 96.8075 871.041 97.2056L876.586 102.972L870.819 108.517C870.421 108.9 870.409 109.533 870.792 109.931C871.174 110.329 871.808 110.342 872.206 109.959L878.693 103.721ZM827 102L826.98 103L877.98 104L878 103L878.02 102L827.02 101L827 102Z" fill="black"/>
<path d="M1186.69 103.721C1187.09 103.338 1187.1 102.705 1186.72 102.307L1180.48 95.8194C1180.1 95.4213 1179.47 95.4089 1179.07 95.7917C1178.67 96.1745 1178.66 96.8075 1179.04 97.2056L1184.59 102.972L1178.82 108.517C1178.42 108.9 1178.41 109.533 1178.79 109.931C1179.17 110.329 1179.81 110.342 1180.21 109.959L1186.69 103.721ZM1135 102L1134.98 103L1185.98 104L1186 103L1186.02 102L1135.02 101L1135 102Z" fill="black"/>
<path d="M943.707 539.707C944.098 539.317 944.098 538.683 943.707 538.293L937.343 531.929C936.953 531.538 936.319 531.538 935.929 531.929C935.538 532.319 935.538 532.953 935.929 533.343L941.586 539L935.929 544.657C935.538 545.047 935.538 545.681 935.929 546.071C936.319 546.462 936.953 546.462 937.343 546.071L943.707 539.707ZM900 539V540H943V539V538H900V539Z" fill="black"/>
<path d="M1381.84 220.987C1382.39 221.075 1382.9 220.703 1382.99 220.158L1384.41 211.271C1384.5 210.726 1384.13 210.213 1383.58 210.126C1383.03 210.038 1382.52 210.41 1382.43 210.955L1381.17 218.855L1373.27 217.591C1372.73 217.503 1372.21 217.875 1372.13 218.42C1372.04 218.965 1372.41 219.478 1372.96 219.566L1381.84 220.987ZM1361 191L1360.19 191.587L1381.19 220.587L1382 220L1382.81 219.413L1361.81 190.413L1361 191Z" fill="black"/>
<defs>
<linearGradient id="paint0_linear_47_292" x1="289" y1="277.218" x2="289" y2="364.783" gradientUnits="userSpaceOnUse">
<stop stop-color="#725FF8"/>
<stop offset="1" stop-color="#2D0DA0"/>
</linearGradient>
<linearGradient id="paint1_linear_47_292" x1="793" y1="478.286" x2="793" y2="589.714" gradientUnits="userSpaceOnUse">
<stop stop-color="#725FF8"/>
<stop offset="1" stop-color="#2D0DA0"/>
</linearGradient>
<linearGradient id="paint2_linear_47_292" x1="793" y1="478.286" x2="793" y2="589.714" gradientUnits="userSpaceOnUse">
<stop stop-color="#725FF8"/>
<stop offset="1" stop-color="#2D0DA0"/>
</linearGradient>
<linearGradient id="paint3_linear_47_292" x1="1418.5" y1="275" x2="1418.5" y2="370" gradientUnits="userSpaceOnUse">
<stop stop-color="#725FF8"/>
<stop offset="1" stop-color="#2D0DA0"/>
</linearGradient>
<linearGradient id="paint4_linear_47_292" x1="1028" y1="64.1429" x2="1028" y2="162.714" gradientUnits="userSpaceOnUse">
<stop stop-color="#725FF8"/>
<stop offset="1" stop-color="#2D0DA0"/>
</linearGradient>
<linearGradient id="paint5_linear_47_292" x1="1028" y1="83.4286" x2="1028" y2="122" gradientUnits="userSpaceOnUse">
<stop stop-color="#725FF8"/>
<stop offset="1" stop-color="#2D0DA0"/>
</linearGradient>
<linearGradient id="paint6_linear_47_292" x1="539" y1="284.75" x2="539" y2="363.5" gradientUnits="userSpaceOnUse">
<stop stop-color="#725FF8"/>
<stop offset="1" stop-color="#2D0DA0"/>
</linearGradient>
<linearGradient id="paint7_linear_47_292" x1="1051" y1="490" x2="1051" y2="570" gradientUnits="userSpaceOnUse">
<stop stop-color="#725FF8"/>
<stop offset="1" stop-color="#2D0DA0"/>
</linearGradient>
<linearGradient id="paint8_linear_47_292" x1="723" y1="60" x2="723" y2="160" gradientUnits="userSpaceOnUse">
<stop stop-color="#725FF8"/>
<stop offset="1" stop-color="#2D0DA0"/>
</linearGradient>
<linearGradient id="paint9_linear_47_292" x1="1294" y1="60" x2="1294" y2="160" gradientUnits="userSpaceOnUse">
<stop stop-color="#725FF8"/>
<stop offset="1" stop-color="#2D0DA0"/>
</linearGradient>
<linearGradient id="paint10_linear_47_292" x1="1294" y1="60" x2="1294" y2="160" gradientUnits="userSpaceOnUse">
<stop stop-color="#725FF8"/>
<stop offset="1" stop-color="#2D0DA0"/>
</linearGradient>
<linearGradient id="paint11_linear_47_292" x1="1294" y1="85" x2="1294" y2="115" gradientUnits="userSpaceOnUse">
<stop stop-color="#725FF8"/>
<stop offset="1" stop-color="#2D0DA0"/>
</linearGradient>
</defs>
</svg>
