<svg preserveAspectRatio="none" width="100%" height="100%" overflow="visible" style="display: block;" viewBox="0 0 67 67" fill="none" xmlns="http://www.w3.org/2000/svg">
<g id="uis:chart">
<path id="Vector" d="M53.0417 5.58333H13.9583C9.2125 5.58333 5.58333 9.2125 5.58333 13.9583V53.0417C5.58333 57.7875 9.2125 61.4167 13.9583 61.4167H53.0417C57.7875 61.4167 61.4167 57.7875 61.4167 53.0417V13.9583C61.4167 9.2125 57.7875 5.58333 53.0417 5.58333ZM22.3333 47.4583C22.3333 49.1333 21.2167 50.25 19.5417 50.25C17.8667 50.25 16.75 49.1333 16.75 47.4583V36.2917C16.75 34.6167 17.8667 33.5 19.5417 33.5C21.2167 33.5 22.3333 34.6167 22.3333 36.2917V47.4583ZM36.2917 47.4583C36.2917 49.1333 35.175 50.25 33.5 50.25C31.825 50.25 30.7083 49.1333 30.7083 47.4583V19.5417C30.7083 17.8667 31.825 16.75 33.5 16.75C35.175 16.75 36.2917 17.8667 36.2917 19.5417V47.4583ZM50.25 47.4583C50.25 49.1333 49.1333 50.25 47.4583 50.25C45.7833 50.25 44.6667 49.1333 44.6667 47.4583V30.7083C44.6667 29.0333 45.7833 27.9167 47.4583 27.9167C49.1333 27.9167 50.25 29.0333 50.25 30.7083V47.4583Z" fill="var(--fill-0, #4B1EF3)"/>
</g>
</svg>
